<svg width="70" height="83" viewBox="0 0 70 83" fill="none" xmlns="http://www.w3.org/2000/svg">
<g clip-path="url(#clip0_26_177)">
<path d="M38.9205 30.7321C49.8682 35.2872 55.1474 48.2239 53.0855 65.3719C50.8864 63.1771 51.9445 58.8716 48.2417 58.0894C47.8295 58.412 47.3632 58.6271 47.3766 58.783C47.931 63.5203 48.41 68.2685 49.1767 72.9696C49.4342 74.5589 50.9811 75.5349 52.4961 74.6195C55.6965 72.6843 59.0056 70.8115 61.7726 67.1719C59.663 66.9623 58.1867 66.8107 57.0916 66.7071C57.2808 61.6906 57.8721 56.7563 57.5565 51.8729C56.8243 40.3508 51.7201 31.3401 41.1004 26.0566C39.4175 25.2224 38.946 24.0689 38.5558 22.3967C36.9319 15.3947 32.8087 10.2857 26.1858 7.43339C23.7723 6.40152 21.0881 5.40634 17.9482 7.99618C22.9691 8.28827 26.6166 10.2063 29.6265 13.3236C32.5775 16.383 34.7703 19.8128 35.0414 24.1255C31.4144 25.5362 27.7781 26.4719 24.6762 28.2999C21.5795 30.1365 18.6647 32.5769 16.2996 35.3023C13.8819 38.095 14.1828 41.7094 16.1172 44.2187C18.0515 46.728 21.2674 47.5384 24.8465 46.1453C30.4801 43.952 34.4941 39.9362 37.2083 34.582C37.8456 33.3244 38.3572 32.0147 38.9205 30.7321ZM34.8933 29.7264C32.9294 35.7703 29.3774 39.4683 24.3721 41.9218C22.7396 42.7217 20.9262 43.2452 19.6579 41.3835C18.5789 39.7929 19.4349 38.2607 20.5444 37.0658C24.2091 33.1113 28.6967 30.6932 34.8933 29.7264Z" fill="white"/>
</g>
<defs>
<clipPath id="clip0_26_177">
<rect width="74.96" height="35.49" fill="white" transform="matrix(0.522 0.852945 0.852945 -0.522 0.407471 18.6256)"/>
</clipPath>
</defs>
</svg>
