<svg width="812" height="311" viewBox="0 0 812 311" fill="none" xmlns="http://www.w3.org/2000/svg">
<g filter="url(#filter0_d_18_128)">
<path d="M455.907 49.2957L287.413 71.5278L301.285 249.79L363.666 275.426L491.061 245.117L455.907 49.2957Z" fill="#019877"/>
<path d="M434.544 228.152L417.442 176.772L362.662 177.61L345.071 228.179H326.313L383.917 77.1737L412.637 72.0411L466.277 228.179H434.571L434.544 228.152ZM412.8 162.401L390.73 96.6504L367.982 162.401H412.8Z" fill="#FB882D"/>
<path d="M427.513 228.152L410.411 176.772L355.631 177.61L338.04 228.179H319.282L376.886 77.1737L405.606 72.0411L459.246 228.179H427.54L427.513 228.152ZM405.769 162.401L383.699 96.6504L360.951 162.401H405.769Z" fill="#FBFDFA"/>
<path d="M166.696 92.5444L187.028 258.299H314.776L281.387 82.2522L166.696 92.5444Z" fill="#4D5FCA"/>
<path d="M256.63 113.102L248.16 128.58C245.826 132.849 243.301 136.738 240.587 140.223L249.056 124.744C251.771 121.26 254.295 117.37 256.63 113.102Z" fill="#C2CB16"/>
<path d="M212.979 111.211L204.51 126.716L204.564 124.231L213.007 108.752L212.979 111.211Z" fill="#C2CB16"/>
<path d="M278.374 159.43L269.932 174.909L267.271 175.044L275.714 159.565L278.374 159.43Z" fill="#C2CB16"/>
<path d="M210.265 121.854L201.796 137.333C203.56 134.091 204.456 130.579 204.51 126.689L212.98 111.211C212.925 115.101 212.03 118.612 210.265 121.854Z" fill="#C2CB16"/>
<path d="M275.713 159.565L267.244 175.044C258.883 175.422 250.984 175.908 243.844 176.421L252.314 160.943C259.453 160.429 267.325 159.943 275.713 159.565Z" fill="#C2CB16"/>
<path d="M282.907 224.829L274.438 240.335L272.402 241.011L280.871 225.505L282.907 224.829Z" fill="#C2CB16"/>
<path d="M214.147 166.237L205.677 181.716C201.714 182.445 197.615 183.283 193.38 184.201L201.85 168.722C206.085 167.831 210.184 166.967 214.147 166.237Z" fill="#C2CB16"/>
<path d="M201.85 168.722L193.38 184.201L190.774 184.768L199.244 169.29L201.85 168.722Z" fill="#C2CB16"/>
<path d="M199.244 169.29L190.774 184.768L186.377 146.977L194.846 131.471L199.244 169.29Z" fill="#C2CB16"/>
<path d="M217.214 193.683L208.745 209.162L205.677 181.743L214.147 166.237L217.214 193.683Z" fill="#C2CB16"/>
<path d="M275.714 159.565C267.353 159.943 259.453 160.429 252.314 160.943L254.024 177.07C254.703 182.851 256.304 187.254 258.693 190.144C260.946 192.791 264.801 193.845 270.094 193.197C272.293 192.927 274.383 192.44 276.365 191.711L279.514 190.603L279.595 194.466C279.704 198.815 280.003 203.273 280.518 207.73C280.763 209.891 281.414 214.78 282.5 222.371L282.88 224.83L280.844 225.505C276.419 227.045 272.565 228.152 269.416 228.827C266.321 229.449 262.249 230.097 257.336 230.691C244.659 232.258 235.022 229.611 228.751 222.912C222.562 216.293 218.653 206.433 217.187 193.683L214.12 166.237C210.156 166.967 206.057 167.804 201.823 168.722L199.217 169.29L194.819 131.498L197.262 131.201C202.013 130.606 205.732 128.445 208.555 124.528C211.459 120.557 212.898 116.208 212.952 111.238V108.779L261.652 102.755L259.399 107.672C256.332 114.128 252.884 119.855 249.029 124.798L273.976 121.719L278.347 159.484L275.686 159.619L275.714 159.565Z" fill="#C2CB16"/>
<path d="M280.871 225.505L272.402 240.984C267.977 242.523 264.122 243.631 260.973 244.306C257.879 244.928 253.807 245.576 248.894 246.17C236.216 247.737 226.58 245.09 220.309 238.39C214.12 231.772 210.211 221.912 208.745 209.162L217.214 193.683C218.707 206.433 222.589 216.293 228.779 222.912C235.049 229.611 244.686 232.258 257.363 230.691C262.276 230.07 266.375 229.422 269.443 228.827C272.592 228.152 276.447 227.072 280.871 225.505Z" fill="#C2CB16"/>
<path d="M275.252 157.809C265.751 158.079 257.065 158.403 249.219 158.836L250.984 178.015C251.635 184.471 253.346 189.469 256.142 192.873C258.91 196.33 263.362 197.708 269.524 197.087C271.886 196.844 274.139 196.384 276.257 195.628C276.311 200.112 276.555 204.677 277.017 209.243C277.234 211.458 277.804 216.347 278.781 224.019C274.356 225.478 270.61 226.477 267.57 227.018C264.502 227.558 260.512 228.071 255.599 228.584C243.573 229.827 234.751 227.342 229.077 221.048C223.404 214.753 219.956 205.515 218.762 193.359L215.884 162.834C211.079 163.563 206.112 164.454 200.873 165.481L197.669 133.524C203.017 132.957 207.36 130.525 210.672 126.176C213.957 121.8 215.667 116.857 215.857 111.238L257.77 106.889C253.373 115.83 248.242 123.178 242.406 128.905L272.103 125.825L275.306 157.782L275.252 157.809Z" fill="white"/>
<path d="M168.379 250.087L184.992 128.229L181.138 35.2487L64.0305 10.0451L20 80.8205L25.5377 274.723L134.148 280.045L168.379 250.087Z" fill="#019877"/>
<path d="M59.4156 239.525C51.3262 229.611 47.7972 214.078 48.8559 192.954L49.8874 172.315L91.6105 174.368L90.3076 200.652C89.7918 211.134 92.9136 216.536 99.6457 216.86C103.419 217.05 106.106 216.077 107.708 213.943C109.282 211.809 110.233 208.108 110.477 202.867C110.83 195.979 110.287 190.252 108.848 185.687C107.409 181.095 105.509 177.232 103.12 174.071C100.704 170.911 96.3882 165.994 90.1175 159.268L72.7442 140.196C59.2799 125.744 52.9549 110.157 53.7693 93.4628C54.6651 75.4448 59.497 61.938 68.2651 52.9155C77.0332 43.92 89.4117 39.787 105.373 40.5704C124.457 41.5158 137.948 47.2157 145.848 57.6969C153.747 68.1782 157.168 84.1431 156.109 105.592L112.92 103.485L113.382 88.9786C113.517 86.1962 112.839 83.9541 111.373 82.2252C109.88 80.5233 107.762 79.5779 104.966 79.4428C101.682 79.2807 99.1571 80.0641 97.4198 81.793C95.6824 83.5218 94.7323 85.926 94.5966 89.0326C94.2437 95.921 97.8541 103.215 105.401 110.995L128.909 135.793C134.392 141.655 138.899 147.166 142.455 152.352C145.984 157.539 148.753 163.59 150.707 170.478C152.662 177.394 153.422 185.498 152.96 194.845C151.929 215.645 147.314 231.232 139.143 241.578C130.972 251.924 118.078 256.678 100.46 255.814C81.2137 254.869 67.5322 249.439 59.4428 239.525H59.4156Z" fill="white"/>
<path d="M50.7019 230.826C42.6124 220.913 39.0835 205.38 40.1421 184.255L41.1737 163.617L82.8968 165.67L81.5938 191.954C81.078 202.435 84.1998 207.838 90.932 208.162C94.7052 208.351 97.3927 207.379 98.9943 205.245C100.569 203.111 101.519 199.41 101.763 194.169C102.116 187.281 101.573 181.554 100.134 176.989C98.6957 172.396 96.7955 168.533 94.4066 165.373C91.9907 162.212 87.6745 157.296 81.4038 150.569L64.0305 131.498C50.5661 117.046 44.2412 101.459 45.0555 84.7645C45.9513 66.7465 50.7833 53.2397 59.5514 44.2172C68.3195 35.2217 80.698 31.0886 96.6597 31.872C115.743 32.8175 129.235 38.5173 137.134 48.9986C145.034 59.4798 148.454 75.4448 147.395 96.8935L104.206 94.7865L104.668 80.2802C104.803 77.4978 104.125 75.2557 102.659 73.5268C101.166 71.825 99.0486 70.8795 96.2526 70.7445C92.9679 70.5824 90.4433 71.3658 88.706 73.0946C86.9687 74.8235 86.0186 77.2277 85.8828 80.3342C85.53 87.2227 89.1403 94.5163 96.6869 102.296L120.195 127.095C125.679 132.957 130.185 138.467 133.741 143.654C137.27 148.84 140.039 154.892 141.993 161.78C143.948 168.695 144.708 176.799 144.246 186.146C143.215 206.947 138.6 222.533 130.429 232.879C122.258 243.226 109.364 247.98 91.7463 247.116C72.5 246.17 58.8185 240.74 50.729 230.826H50.7019Z" fill="#1C1827"/>
<path d="M458.188 42.7314L473.362 262.027C473.362 262.027 630.727 262.729 629.342 254.463C627.958 246.197 606.621 56.6974 606.621 56.6974L561.396 38.5443L458.161 42.7585L458.188 42.7314Z" fill="#0072BB"/>
<path d="M629.342 254.436C628.473 249.25 619.787 173.045 613.407 116.775L582.841 86.1962C581.674 84.8455 580.425 83.4948 579.122 82.1982C566.255 69.3938 550.728 62.9916 532.54 62.9916H490.518V231.907L520.596 261.838C566.825 261.352 630.238 259.731 629.342 254.463V254.436Z" fill="#002C47"/>
<path d="M569.703 231.907L539.598 194.223H514.488V231.907H490.518V62.9916H532.54C550.728 62.9916 566.255 69.3938 579.122 82.1982C591.989 95.0026 598.423 110.454 598.423 128.553C598.423 146.652 591.989 162.212 579.122 175.017C574.616 179.42 569.648 183.175 564.192 186.281L600.187 231.907H569.676H569.703Z" fill="#FFDF07"/>
<path d="M572.716 225.694L544.484 190.36C543.29 188.875 541.498 188.01 539.598 188.01H514.488C511.04 188.01 508.244 190.792 508.244 194.223V225.694H496.762V69.2047H532.54C549.153 69.2047 562.97 74.9045 574.725 86.6014C586.479 98.2982 592.206 112.021 592.206 128.58C592.206 145.14 586.479 158.944 574.725 170.64C570.653 174.611 566.065 178.069 561.097 180.879C559.523 181.77 558.41 183.31 558.057 185.066C557.704 186.849 558.166 188.685 559.279 190.09L587.347 225.694H572.689H572.716Z" fill="#FFDF07"/>
<path d="M504.77 77.7139H540.548C555.94 77.7139 568.915 82.6034 580.099 92.6254C578.471 90.5454 576.706 88.5464 574.725 86.6014C562.97 74.9045 549.18 69.2047 532.54 69.2047H496.762V225.694H504.77V77.7139Z" fill="#FFA407"/>
<path d="M552.492 198.87C551.759 197.978 550.809 197.33 549.75 196.952L572.715 225.721H573.91L552.492 198.897V198.87Z" fill="#FFA407"/>
<path d="M535.987 158.052C549.099 158.052 559.713 147.49 559.713 134.442C559.713 121.395 549.099 110.833 535.987 110.833H527.844V158.052H535.987Z" fill="#FB882D"/>
<path d="M743.164 272.076C761.705 203.624 774.165 130.282 792 61.6139C737.871 64.9906 677.499 69.0966 623.506 63.829C609.064 120.314 598.993 178.042 593.482 236.256C645.602 246.305 691.044 262.027 743.164 272.076Z" fill="#358DBB"/>
<path d="M632.626 234.095L637.051 219.4L651.601 214.105L677.878 129.337H666.64L643.43 157.08L622.121 155.972L646.172 95.4618H662.432L668.16 103.566H747.697L758.583 95.4618H775.82L766.754 156.701H747.182L742.241 129.337H727.501L700.817 215.24L713.087 220.075L709.015 234.095H632.626Z" fill="#231F20"/>
<path d="M622.854 227.477L627.958 210.431L642.535 205.137L668.079 122.718H659.257L636.02 150.488L612.213 149.246L637.269 86.1692H655.131L660.858 94.3002H739.256L750.168 86.1692H769.36L759.914 150.083H738.061L733.121 122.718H720.498L694.465 206.514L706.681 211.323L702.039 227.477H622.854Z" fill="#FFD06A"/>
<path d="M743.327 117.424H645.602L660.668 112.75L633.631 145.059L619.895 144.356L640.906 91.4908H652.361L660.342 102.782L647.312 99.5949H751.417L736.785 102.782L751.959 91.4908H763.225L755.353 144.788H742.567L736.459 110.995L743.381 117.424H743.327ZM677.878 109.131H719.113L687.895 209.648L700.219 214.51L697.994 222.182H629.966L632.274 214.51L646.824 209.216L677.851 109.131H677.878Z" fill="#0F4A54"/>
</g>
<defs>
<filter id="filter0_d_18_128" x="0" y="0.045105" width="812" height="310" filterUnits="userSpaceOnUse" color-interpolation-filters="sRGB">
<feFlood flood-opacity="0" result="BackgroundImageFix"/>
<feColorMatrix in="SourceAlpha" type="matrix" values="0 0 0 0 0 0 0 0 0 0 0 0 0 0 0 0 0 0 127 0" result="hardAlpha"/>
<feOffset dy="10"/>
<feGaussianBlur stdDeviation="10"/>
<feComposite in2="hardAlpha" operator="out"/>
<feColorMatrix type="matrix" values="0 0 0 0 0 0 0 0 0 0 0 0 0 0 0 0 0 0 0.75 0"/>
<feBlend mode="normal" in2="BackgroundImageFix" result="effect1_dropShadow_18_128"/>
<feBlend mode="normal" in="SourceGraphic" in2="effect1_dropShadow_18_128" result="shape"/>
</filter>
</defs>
</svg>
