<svg width="505" height="46" viewBox="0 0 505 46" fill="none" xmlns="http://www.w3.org/2000/svg">
<path d="M406.99 25.8972C406.99 24.5673 406.99 23.2412 406.99 21.9113C406.998 18.8145 409.093 16.1955 412.092 15.525C415.598 14.7434 419.2 17.2549 419.72 20.8519C419.779 21.2482 419.804 21.6483 419.804 22.0484C419.804 24.8044 419.797 27.5642 419.812 30.3202C419.812 30.6203 419.731 30.6981 419.44 30.6907C418.604 30.6721 417.771 30.6721 416.935 30.6907C416.651 30.6981 416.581 30.6092 416.581 30.3313C416.592 27.5494 416.592 24.7674 416.585 21.9854C416.578 20.1221 415.163 18.6885 413.366 18.6996C411.627 18.7107 410.224 20.1406 410.209 21.9372C410.198 23.4931 410.209 25.0452 410.209 26.601C410.209 27.842 410.198 29.083 410.217 30.3239C410.22 30.6277 410.125 30.7018 409.837 30.6944C409.001 30.6758 408.169 30.6758 407.333 30.6944C407.045 30.7018 406.983 30.6092 406.986 30.335C407.001 28.857 406.994 27.379 406.994 25.8972H406.99Z" fill="white"/>
<path d="M362.942 15.9769C359.037 8.19773 349.313 5.49724 342.006 10.1647C335.254 14.4803 333.055 23.6042 337.078 30.6165C340.33 36.2842 346.79 39.1736 352.967 37.7882C359.527 36.3176 364.595 30.3906 364.625 22.993C364.588 20.5777 364.131 18.3514 362.942 15.9769ZM358.466 23.0485C358.466 24.4006 358.466 25.7564 358.466 27.1085C358.466 27.6271 358.404 27.6642 357.973 27.4049C356.227 26.3602 354.374 26.3639 352.481 26.8714C350.846 27.3085 349.284 27.9753 347.663 28.4606C346.138 28.9199 344.599 29.1385 343.033 28.6458C342.569 28.4976 342.131 28.2902 341.708 28.0494C341.383 27.8642 341.221 27.5975 341.214 27.227C341.21 26.9752 341.214 26.727 341.214 26.4751C341.214 24.2191 341.214 21.9631 341.214 19.7072C341.214 19.4331 341.225 19.1552 341.24 18.8811C341.258 18.5366 341.354 18.481 341.656 18.6811C342.591 19.3034 343.612 19.6664 344.739 19.6887C346.032 19.7146 347.243 19.3368 348.441 18.8996C349.98 18.3329 351.49 17.6735 353.081 17.2549C354.791 16.803 356.411 16.9771 357.918 17.9624C358.297 18.2106 358.477 18.5292 358.474 18.9922C358.459 20.3443 358.47 21.7001 358.47 23.0522L358.466 23.0485Z" fill="white"/>
<path d="M438.191 21.9114C438.191 21.2446 438.084 20.589 437.885 19.9518C436.946 16.9809 434.055 15.0509 431.104 15.4214C427.977 15.814 425.579 18.296 425.406 21.4224C425.325 22.8857 425.392 24.3526 425.392 25.8195C425.384 25.8195 425.373 25.8195 425.366 25.8195C425.366 27.3235 425.373 28.8275 425.358 30.3314C425.358 30.6093 425.425 30.6982 425.712 30.6908C426.559 30.6722 427.406 30.6722 428.253 30.6908C428.519 30.6945 428.589 30.6093 428.585 30.35C428.57 29.472 428.585 28.5941 428.574 27.7162C428.574 27.4717 428.644 27.3939 428.891 27.3939C430.824 27.4013 432.754 27.4013 434.688 27.3939C434.92 27.3939 434.983 27.468 434.979 27.6939C434.968 28.5719 434.983 29.4498 434.968 30.3277C434.964 30.5944 435.012 30.6982 435.311 30.6908C436.158 30.6685 437.005 30.6685 437.852 30.6908C438.143 30.6982 438.198 30.6056 438.198 30.3314C438.187 27.5235 438.195 24.7156 438.191 21.9077V21.9114ZM434.681 24.1192C433.708 24.1155 432.74 24.1192 431.767 24.1192C430.795 24.1192 429.874 24.1081 428.931 24.1266C428.644 24.1303 428.567 24.0377 428.578 23.7636C428.6 23.0635 428.555 22.3596 428.614 21.6632C428.762 19.9222 430.158 18.6738 431.87 18.7034C433.498 18.7294 434.865 20.0703 434.964 21.7706C435.005 22.4708 434.964 23.1709 434.983 23.871C434.99 24.1192 434.861 24.1192 434.681 24.1192Z" fill="white"/>
<path d="M401.402 25.9194C401.402 24.6043 401.402 23.2856 401.402 21.9705C401.402 21.6334 401.38 21.2963 401.332 20.9592C400.842 17.5882 397.981 15.2471 394.533 15.4064C391.402 15.5508 388.68 18.3439 388.607 21.6223C388.54 24.5524 388.592 27.4863 388.581 30.4202C388.581 30.6387 388.654 30.6943 388.861 30.6906C389.745 30.6795 390.629 30.6795 391.516 30.6906C391.748 30.6906 391.811 30.6128 391.807 30.3868C391.796 29.4978 391.807 28.6087 391.8 27.716C391.8 27.4752 391.863 27.3937 392.109 27.3937C394.028 27.4048 395.947 27.4048 397.866 27.3937C398.143 27.3937 398.194 27.4937 398.19 27.7419C398.176 28.6198 398.19 29.4978 398.179 30.3757C398.176 30.6239 398.253 30.6943 398.496 30.6906C399.354 30.6758 400.216 30.6758 401.074 30.6906C401.34 30.6943 401.406 30.6128 401.406 30.3535C401.395 28.8754 401.399 27.3937 401.399 25.9157L401.402 25.9194ZM397.888 24.1227C396.927 24.1116 395.969 24.119 395.008 24.119C394.047 24.119 393.089 24.1116 392.128 24.1264C391.863 24.1301 391.782 24.0487 391.796 23.7856C391.84 22.9373 391.708 22.0779 391.885 21.237C392.224 19.6293 393.682 18.5699 395.332 18.7144C396.839 18.8477 398.109 20.1961 398.172 21.7631C398.202 22.4521 398.172 23.1411 398.187 23.8301C398.19 24.0672 398.109 24.1264 397.885 24.1227H397.888Z" fill="white"/>
<path d="M375.579 15.399C373.91 15.399 372.238 15.4101 370.57 15.3953C370.242 15.3953 370.19 15.499 370.194 15.7953C370.205 18.2143 370.201 20.6332 370.201 23.0522C370.201 25.4711 370.205 27.916 370.194 30.3461C370.194 30.6313 370.268 30.698 370.548 30.698C372.242 30.6832 373.936 30.6906 375.631 30.6906C376.054 30.6906 376.478 30.6424 376.894 30.5609C380.345 29.8756 382.721 27.1492 383.012 23.5449C383.365 19.2145 379.899 15.4138 375.579 15.4027V15.399ZM379.767 23.6708C379.491 25.7527 377.693 27.3567 375.608 27.3752C374.971 27.3826 374.338 27.3641 373.701 27.3826C373.468 27.39 373.41 27.3159 373.41 27.0862C373.421 25.7341 373.413 24.3783 373.413 23.0263C373.413 21.6742 373.424 20.3962 373.406 19.0774C373.402 18.7514 373.502 18.6773 373.804 18.6959C374.758 18.7514 375.723 18.5958 376.666 18.8514C378.732 19.4145 380.058 21.4704 379.767 23.6708Z" fill="white"/>
<path fill-rule="evenodd" clip-rule="evenodd" d="M496.85 0H467.413C462.911 0 459.262 3.67001 459.262 8.1972V37.8028C459.262 42.33 462.911 46 467.413 46H496.85C501.351 46 505 42.33 505 37.8028V8.1972C505 3.67001 501.351 0 496.85 0ZM486.359 24.0287L491.406 14.1387H490.258L492.484 10.1496H499.134L499.729 24.0287H495.32L495.303 21.6478H492.277L491.284 24.0287H486.359ZM495.157 14.6999L495.195 18.4756H493.542L495.155 14.6999H495.157ZM476.415 19.6291C476.415 21.9033 474.225 24.0285 471.263 24.0285H471.262H464.62L467.121 14.3465L466.084 14.3409L468.219 10.1899C468.219 10.1899 472.259 10.177 474.037 10.1899C476.225 10.2028 477.55 11.3914 477.55 13.1081C477.55 14.6905 476.245 16.0908 474.814 16.8157C476.289 17.3567 476.415 18.6889 476.415 19.6291ZM472.548 13.8368L471.283 13.8313H471.282L470.813 15.8056H471.986C472.438 15.8056 473.237 15.6915 473.437 14.8138C473.656 13.8625 472.906 13.8368 472.548 13.8368ZM471.754 18.2454H470.191L470.189 18.2473L469.599 20.5215H471.112C471.708 20.5215 472.429 20.2253 472.628 19.4856C472.824 18.7422 472.346 18.2454 471.754 18.2454ZM483.293 24.5218C484.136 24.4961 485.095 24.3231 485.536 24.1814L487.738 19.644C487.1 20.1371 485.764 20.8345 484.436 20.805C482.127 20.7535 481.262 19.2999 481.273 18.0229C481.291 16.2161 482.764 14.3448 485.205 14.3006C486.445 14.2785 487.513 14.8471 488.311 15.4929L490.474 11.6124L487.528 10.0355L487.137 10.5525C486.815 10.3685 486.249 10.2857 485.898 10.2857C480.175 10.2857 476.834 14.9943 476.833 18.8657C476.833 21.7949 478.609 24.6598 483.289 24.5218H483.293ZM470.383 30.9818C471.062 30.1759 471.818 29.7711 472.648 29.7711L472.65 29.7692C473.212 29.7692 473.614 29.9937 473.857 30.4427C474.101 30.8935 474.106 31.5503 473.876 32.4151L472.95 35.8891H471.885L472.774 32.5513C472.932 31.9588 472.945 31.5025 472.813 31.186C472.681 30.8677 472.414 30.7095 472.011 30.7095C471.664 30.7095 471.316 30.8511 470.97 31.1327C470.625 31.416 470.392 31.7767 470.275 32.2183L469.296 35.8891H468.232L469.174 32.3526C469.311 31.8466 469.309 31.4455 469.174 31.1511C469.037 30.8567 468.77 30.7095 468.407 30.7095C468.045 30.7095 467.681 30.8695 467.317 31.1915C466.951 31.5117 466.711 31.8871 466.598 32.3158L465.647 35.8891H464.582L465.738 31.5503C465.916 30.8861 466.045 30.3378 466.13 29.9054H467.077L466.9 30.8824C467.52 30.1409 468.234 29.7692 469.046 29.7692C469.419 29.7692 469.723 29.8778 469.957 30.0912C470.189 30.3065 470.332 30.6027 470.383 30.9818ZM478.722 29.771C477.875 29.771 477.098 30.0581 476.39 30.634C475.68 31.2081 475.197 31.9809 474.939 32.9487C474.696 33.8595 474.769 34.601 475.155 35.1714C475.541 35.7418 476.148 36.027 476.975 36.027C477.506 36.027 478.034 35.8964 478.559 35.6369C479.085 35.3775 479.538 35.0058 479.921 34.5237C480.303 34.0417 480.579 33.4786 480.751 32.8365C480.991 31.9349 480.925 31.197 480.55 30.6266C480.175 30.0562 479.568 29.771 478.724 29.771H478.722ZM479.604 32.8733C479.425 33.5485 479.107 34.1005 478.651 34.5293C478.195 34.958 477.712 35.1714 477.202 35.1714C476.692 35.1714 476.344 34.958 476.126 34.5311C475.908 34.1042 475.887 33.5633 476.06 32.9082C476.234 32.2532 476.54 31.7085 476.973 31.2743C477.407 30.8401 477.899 30.6229 478.45 30.6229C479 30.6229 479.361 30.8419 479.558 31.2817C479.756 31.7214 479.771 32.2513 479.606 32.8733H479.604ZM483.633 30.8842C484.244 30.1427 485.01 29.771 485.931 29.771L485.929 29.7692C486.655 29.7692 487.175 30.0525 487.487 30.6192C487.802 31.186 487.839 31.9164 487.601 32.8107C487.341 33.7877 486.876 34.5679 486.209 35.1512C485.541 35.7344 484.838 36.0252 484.101 36.0252C483.216 36.0252 482.648 35.6516 482.4 34.9009L482.089 35.889H481.141C481.273 35.51 481.428 34.9874 481.606 34.3195L483.532 27.0883H484.644L483.633 30.8842ZM485.574 34.5035C486 34.0968 486.306 33.5504 486.489 32.8622C486.659 32.2237 486.64 31.6993 486.434 31.289C486.227 30.8787 485.859 30.6744 485.329 30.6744C484.86 30.6744 484.418 30.8548 484.002 31.2154C483.585 31.576 483.314 31.9919 483.188 32.4666L482.928 33.4436C482.809 33.8889 482.862 34.279 483.087 34.612C483.313 34.9451 483.656 35.1125 484.121 35.1125C484.663 35.1125 485.148 34.9101 485.574 34.5035ZM488.033 35.8908H489.121L490.714 29.9071H489.628L488.033 35.8908ZM489.96 28.0893C490.013 27.8869 490.122 27.7177 490.291 27.5797C490.459 27.4417 490.653 27.3717 490.852 27.3717C491.052 27.3717 491.198 27.4417 491.291 27.5797C491.384 27.7177 491.405 27.8869 491.352 28.0893C491.297 28.2954 491.187 28.4684 491.02 28.6082C490.854 28.7481 490.658 28.818 490.455 28.818C490.252 28.818 490.106 28.7481 490.014 28.6082C489.923 28.4684 489.905 28.2954 489.96 28.0893ZM493.139 27.0883L490.796 35.8908H491.884L494.227 27.0883H493.139ZM495.26 30.6984C495.926 30.0801 496.681 29.771 497.528 29.771C498.309 29.771 498.835 30.0452 499.105 30.5953C499.376 31.1455 499.405 31.8189 499.193 32.6138C499.133 32.8401 499.074 33.0131 499.019 33.1327H494.912C494.757 33.7804 494.813 34.2753 495.084 34.6194C495.357 34.9653 495.779 35.1365 496.357 35.1365C496.985 35.1365 497.563 35.0334 498.09 34.8273L498.062 35.6314C497.433 35.8945 496.74 36.027 495.979 36.027C495.097 36.027 494.467 35.751 494.092 35.199C493.717 34.647 493.652 33.9129 493.895 32.9984C494.138 32.0821 494.594 31.3166 495.26 30.6984ZM495.144 32.3047H498.222C498.359 31.7895 498.344 31.3737 498.176 31.059C498.008 30.7444 497.693 30.5861 497.228 30.5861C496.787 30.5861 496.381 30.7444 496.008 31.059C495.637 31.3737 495.347 31.7895 495.144 32.3047Z" fill="white"/>
<path fill-rule="evenodd" clip-rule="evenodd" d="M86.8048 7.86844C95.0099 7.86844 101.678 14.6374 101.678 23C101.678 31.3626 95.0256 38.1316 86.8048 38.1316C78.5839 38.1316 71.9319 31.3626 71.9319 23C71.9319 14.6374 78.5839 7.86844 86.8048 7.86844ZM86.8048 13.5329C81.6746 13.5329 77.5014 17.7773 77.5014 23C77.5014 28.2227 81.6589 32.4671 86.8048 32.4671C91.9506 32.4671 96.1081 28.2227 96.1081 23C96.1081 17.7773 91.9506 13.5329 86.8048 13.5329ZM147.504 7.86844C155.709 7.86844 162.377 14.6374 162.377 23C162.377 31.3626 155.725 38.1316 147.504 38.1316C139.283 38.1316 132.631 31.3626 132.631 23C132.631 14.6374 139.283 7.86844 147.504 7.86844ZM147.504 13.5329C142.374 13.5329 138.201 17.7773 138.201 23C138.201 28.2227 142.358 32.4671 147.504 32.4671C152.65 32.4671 156.808 28.2227 156.808 23C156.808 17.7773 152.65 13.5329 147.504 13.5329ZM105.098 13.738L114.134 34.1239C114.307 34.5183 115.688 37.9896 120.002 37.8002L130.968 12.0024V8.90982H121.587V13.738H124.599L118.213 29.485L111.122 13.738H114.276V8.90982H102.384V13.738H105.113H105.098Z" fill="white"/>
<path fill-rule="evenodd" clip-rule="evenodd" d="M213.532 23C213.532 31.3275 206.766 38.1316 198.486 38.1316C190.206 38.1316 183.441 31.3275 183.441 23C183.441 14.6726 190.186 7.86844 198.486 7.86844C206.786 7.86844 213.532 14.6726 213.532 23ZM194.407 30.9216C191.559 30.7794 190.004 28.8702 189.822 26.3923L189.843 26.4329C189.661 24.1784 189.661 21.9239 189.843 19.6694C190.045 17.1915 191.519 15.3635 194.427 15.1401C196.002 14.9979 197.557 14.9776 199.132 14.9979H199.758C200.95 15.0791 203.495 15.5057 203.575 17.8008H193.922C193.599 17.8008 193.316 18.0648 193.316 18.4101C193.316 18.7351 193.579 19.0195 193.922 19.0195H203.555C203.818 19.0195 206.685 19.1413 207.311 22.5739C207.332 23.8534 207.291 25.1127 207.19 26.3923C206.988 28.8905 205.11 30.7591 202.606 30.9216C199.88 31.0841 197.133 31.0435 194.407 30.9216ZM204.302 25.9048V25.0924H204.323C204.565 24.9096 204.726 24.6456 204.726 24.3409C204.726 23.8331 204.302 23.4269 203.757 23.4269C203.212 23.4269 202.788 23.8331 202.788 24.3409C202.788 24.6659 202.949 24.9299 203.192 25.0924V25.9048C203.192 26.2095 203.434 26.4532 203.737 26.4532C204.06 26.4532 204.302 26.2095 204.302 25.9048Z" fill="white"/>
<path fill-rule="evenodd" clip-rule="evenodd" d="M289.466 21.6388V24.3808C289.466 24.3808 288.537 26.2088 285.326 26.6759C282.115 27.1227 282.115 25.112 282.337 24.6042C282.579 24.0761 283.327 23.3652 285.972 22.9387C288.8 22.4716 289.466 21.6591 289.466 21.6591V21.6388ZM293.242 18.9984C293.242 14.7738 289.203 12.8036 285.588 13.1489C282.216 13.4739 279.389 15.0581 278.52 18.5922L282.014 19.4656C283.125 16.2971 287.244 15.3628 289.001 17.6376C289.466 18.2469 289.284 18.8969 288.577 19.2421C287.547 19.7702 285.588 19.628 283.589 20.1764C275.148 22.5122 277.793 30.2709 284.801 30.0678C287.043 30.0069 288.658 28.971 289.749 27.9555L289.789 29.6819H293.263V19.0187L293.242 18.9984ZM227.143 17.0689C224.599 17.0689 222.539 19.1406 222.539 21.7201C222.539 24.2995 224.599 26.3712 227.143 26.3712C229.688 26.3712 231.748 24.2995 231.748 21.7201C231.748 19.1406 229.688 17.0689 227.143 17.0689ZM236.151 13.6363V29.3366C236.151 34.8206 232.354 38.1312 227.527 38.1312C224.256 38.1312 221.852 37.3594 219.51 34.8002L222.377 32.2208C223.771 33.8659 225.427 34.2519 227.467 34.2519C229.93 34.2519 231.748 32.2614 231.748 29.8241V28.2195C230.334 29.4585 228.497 30.21 226.477 30.21C221.994 30.21 218.338 26.4525 218.338 21.8216C218.338 17.1907 221.974 13.4332 226.477 13.4332C228.497 13.4332 230.334 14.1847 231.748 15.4237V13.6567H236.171L236.151 13.6363ZM314.003 13.3723H309.277L304.592 23.6699L299.2 13.352H294.454L302.25 28.0367L298.13 36.5673H302.876L314.003 13.352V13.3723ZM267.796 17.0486C270.341 17.0486 272.401 19.1203 272.401 21.6997C272.401 24.2792 270.341 26.3509 267.796 26.3509C265.252 26.3509 263.192 24.2792 263.192 21.6997C263.192 19.1203 265.252 17.0486 267.796 17.0486ZM258.789 13.616H263.212V15.3831C264.626 14.1441 266.464 13.3926 268.483 13.3926C272.987 13.3926 276.622 17.1501 276.622 21.781C276.622 26.4119 272.987 30.1694 268.483 30.1694C266.484 30.1694 264.626 29.4179 263.212 28.1789V36.5673H258.789V13.6567V13.616ZM247.016 16.9064C249.782 16.9064 252.024 19.0797 252.024 21.781C252.024 24.4823 249.782 26.6556 247.016 26.6556C244.249 26.6556 242.007 24.4823 242.007 21.781C242.007 19.0797 244.249 16.9064 247.016 16.9064ZM247.016 13.088C242.088 13.088 238.069 16.9876 238.069 21.781C238.069 26.5744 242.068 30.474 247.016 30.474C251.963 30.474 255.962 26.5744 255.962 21.781C255.962 16.9876 251.963 13.088 247.016 13.088Z" fill="white"/>
<path fill-rule="evenodd" clip-rule="evenodd" d="M5.04456 1.23688H8.263C8.50806 1.23688 8.69629 1.4546 8.66138 1.69762L7.16668 12.0898C7.10912 12.4898 7.41882 12.848 7.82192 12.848H13.4679C13.6283 12.848 13.7512 12.9908 13.7279 13.1496L13.2898 16.1344C13.2672 16.2895 13.1344 16.4046 12.9778 16.4046H6.59375C4.69477 16.4046 2.87362 14.8437 3.14157 12.9593L4.6457 1.58722C4.67212 1.38676 4.84266 1.23688 5.04456 1.23688Z" fill="white"/>
<path fill-rule="evenodd" clip-rule="evenodd" d="M15.7767 5.38354L14.3035 15.9819C14.2801 16.15 14.4103 16.3001 14.5797 16.3001H17.6941C17.9156 16.3001 18.1034 16.1365 18.134 15.9167L19.5929 5.49063C19.624 5.25044 19.4374 5.03745 19.1957 5.03745H16.1735C15.9735 5.03745 15.8043 5.1852 15.7767 5.38354Z" fill="white"/>
<path fill-rule="evenodd" clip-rule="evenodd" d="M22.2002 15.488C21.2393 15.4532 20.7897 15.7551 20.2227 16.0941C20.3595 15.1386 21.4324 7.69216 21.5303 7.23472C21.6339 6.74702 21.728 5.93333 22.1558 5.52293C22.6573 5.04115 23.4335 4.7655 27.2957 4.75297C31.238 4.74021 32.0017 7.58388 31.7925 9.4316C31.6142 11.0131 31.0276 14.9206 30.862 16.0123C30.8368 16.1783 30.6953 16.3005 30.5285 16.3005H27.4832C27.2601 16.3005 27.0886 16.1033 27.1197 15.8821C27.2737 14.7904 27.6867 11.88 27.8268 11.0349C28.0007 9.98951 28.1398 8.83918 27.8615 8.38505C27.5832 7.93187 26.7482 7.58388 25.1483 7.86284L23.965 16.2487C23.965 16.2487 23.2036 15.5244 22.2002 15.488Z" fill="white"/>
<path fill-rule="evenodd" clip-rule="evenodd" d="M35.0954 0.634308H38.4735C38.5993 0.634308 38.696 0.745652 38.6787 0.870472L36.5767 16.1326C36.5611 16.2458 36.4644 16.3302 36.3502 16.3302H33.015C32.8764 16.3302 32.7697 16.2075 32.7888 16.0699L34.8902 0.813736C34.9044 0.710902 34.9919 0.634308 35.0954 0.634308Z" fill="white"/>
<path fill-rule="evenodd" clip-rule="evenodd" d="M37.7095 9.83043L41.5273 5.34944C41.6475 5.2083 41.8235 5.12698 42.0089 5.12698H45.3604C45.6024 5.12698 45.7297 5.41421 45.5679 5.59411L41.6643 9.9361L45.2328 17.6281C45.3637 17.9104 45.158 18.2333 44.8476 18.2333H41.8183C41.66 18.2333 41.5164 18.1409 41.4504 17.9969L37.7095 9.83043Z" fill="white"/>
<path fill-rule="evenodd" clip-rule="evenodd" d="M20.2453 2.16757C19.9722 3.32239 18.9346 4.18171 17.8482 4.18171C16.762 4.18171 15.9289 3.24556 16.2023 2.09097C16.4754 0.936151 17.3748 0 18.6638 0C19.75 0 20.5185 1.01274 20.2453 2.16757Z" fill="white"/>
<path fill-rule="evenodd" clip-rule="evenodd" d="M23.6792 19.0015C23.406 20.1563 22.3684 21.0156 21.282 21.0156C20.1959 21.0156 19.3628 20.0795 19.6361 18.9249C19.9093 17.7701 20.8086 16.8339 22.0977 16.8339C23.1838 16.8339 23.9523 17.8467 23.6792 19.0015Z" fill="white"/>
<path fill-rule="evenodd" clip-rule="evenodd" d="M40.0196 32.8016C39.7894 33.9427 38.7409 34.7916 37.5989 34.7909C36.4565 34.7905 35.5345 33.8647 35.7647 32.7238C35.9949 31.5827 36.8943 30.6579 38.2496 30.6586C39.3917 30.6593 40.2498 31.6605 40.0196 32.8016Z" fill="white"/>
<path fill-rule="evenodd" clip-rule="evenodd" d="M11.2655 27.118H9.22026C9.14431 27.118 9.09218 27.0414 9.12002 26.9705L10.8999 22.4425C10.9339 22.3562 11.0607 22.3746 11.069 22.4668L11.469 26.8946C11.4799 27.0145 11.3858 27.118 11.2655 27.118ZM16.2202 32.8042L13.9379 19.1127C13.8381 18.5142 13.3211 18.0757 12.7156 18.0757H10.4256C9.72714 18.0757 9.09313 18.4844 8.80395 19.1215L2.65602 32.8212C2.56686 33.02 2.71263 33.2444 2.92986 33.2432L6.12424 33.2245C6.34289 33.2233 6.53961 33.0919 6.62499 32.8905L7.68687 30.3867C7.71565 30.3184 7.7824 30.2742 7.85646 30.2742H11.7224C11.8172 30.2742 11.8967 30.3463 11.9059 30.4409L12.1365 32.8101C12.1632 33.0857 12.3946 33.2961 12.671 33.2961H15.8043C16.065 33.2961 16.2631 33.0616 16.2202 32.8042Z" fill="white"/>
<path fill-rule="evenodd" clip-rule="evenodd" d="M14.6964 35.2848L15.4342 37.5691C15.5668 37.945 15.6668 38.0285 15.926 37.9736C16.8579 37.7767 19.1098 37.1098 20.2115 35.616C21.6477 33.6685 21.8447 30.2256 22.0982 28.4757C22.307 27.0344 22.7641 23.4865 22.9188 22.2806C22.9467 22.0635 22.778 21.8718 22.5596 21.8718H19.6959C19.4428 21.8718 19.2289 22.0591 19.1949 22.3104C18.964 24.0136 18.1323 30.1386 17.987 30.9875C17.8181 31.9754 17.7844 33.3983 16.3263 34.2477C15.5986 34.6713 15.2255 34.7522 14.9375 34.8869C14.791 34.9555 14.6254 35.029 14.6964 35.2848Z" fill="white"/>
<path fill-rule="evenodd" clip-rule="evenodd" d="M30.456 30.0106C30.456 30.0106 28.9628 30.5196 28.2459 29.9806C27.5289 29.4418 27.4692 28.3343 27.8874 26.7478C28.3056 25.161 29.351 24.8918 29.7989 24.8618C30.2471 24.8317 31.0894 25.0443 31.0894 25.0443L30.456 30.0106ZM34.5911 22.2814C33.6254 22.0394 32.0019 21.5075 29.392 21.6992C26.984 21.876 24.2649 22.9923 23.7557 27.7565C23.2465 32.5207 25.4195 33.4396 28.5431 33.5758C30.8323 33.6755 32.6289 33.0443 33.4256 32.6999C33.703 32.58 33.8962 32.3231 33.9368 32.0231L35.0909 22.8505C35.1362 22.4864 34.9545 22.3725 34.5911 22.2814Z" fill="white"/>
<path fill-rule="evenodd" clip-rule="evenodd" d="M36.8181 29.1402L37.6585 20.3567C37.6887 20.0421 37.9522 19.9137 38.2675 19.9137H41.1666C41.4367 19.9137 41.5511 20.1191 41.4765 20.4555L39.7071 29.2509C39.6712 29.4211 39.5217 29.5428 39.3481 29.5428H37.183C36.9667 29.5428 36.7974 29.3561 36.8181 29.1402Z" fill="white"/>
<path fill-rule="evenodd" clip-rule="evenodd" d="M2.89294 45.3365C3.46704 45.6544 4.13762 45.7469 4.77588 45.5953C7.31832 44.9916 12.9447 43.3663 24.8465 41.642C39.7992 39.4756 50.8393 39.4846 50.8393 39.4846L50.8683 39.4669C50.8683 39.4669 41.083 38.1194 25.0234 39.6914C8.96351 41.2635 0 43.7341 0 43.7341L2.89294 45.3365Z" fill="white"/>
</svg>
