<svg width="414" height="141" viewBox="0 0 414 141" fill="none" xmlns="http://www.w3.org/2000/svg">
<g filter="url(#filter0_d_34_508)">
<path d="M394 49L353.446 95.5L314.394 111L43.0308 95.5L20 35.5L142.163 9.99998L378.479 10L394 49Z" fill="#358DBB"/>
</g>
<g filter="url(#filter1_d_34_508)">
<path d="M378.5 51.505L341.307 87.8762L305.492 100L56.6218 87.8762L35.5 40.9455L147.537 21L364.266 21L378.5 51.505Z" stroke="#C2CB16" stroke-width="4" stroke-linecap="round" stroke-dasharray="10 10"/>
</g>
<path d="M114.16 71V47.24H116.644V71H114.16ZM98.2838 71V47.24H100.804V71H98.2838ZM99.3278 59.948V57.68H115.168V59.948H99.3278ZM130.734 71.432C129.006 71.432 127.482 71.048 126.162 70.28C124.842 69.488 123.81 68.372 123.066 66.932C122.346 65.468 121.986 63.704 121.986 61.64C121.986 59.504 122.382 57.728 123.174 56.312C123.966 54.896 125.01 53.84 126.306 53.144C127.626 52.424 129.078 52.064 130.662 52.064C132.294 52.064 133.77 52.448 135.09 53.216C136.41 53.96 137.454 55.064 138.222 56.528C139.014 57.968 139.41 59.744 139.41 61.856C139.41 63.944 139.026 65.708 138.258 67.148C137.514 68.564 136.482 69.632 135.162 70.352C133.866 71.072 132.39 71.432 130.734 71.432ZM130.842 69.236C132.09 69.236 133.17 68.936 134.082 68.336C134.994 67.712 135.69 66.848 136.17 65.744C136.674 64.64 136.926 63.344 136.926 61.856C136.926 60.32 136.662 58.988 136.134 57.86C135.63 56.732 134.898 55.856 133.938 55.232C133.002 54.608 131.886 54.296 130.59 54.296C129.366 54.296 128.298 54.584 127.386 55.16C126.474 55.736 125.766 56.564 125.262 57.644C124.758 58.724 124.506 60.032 124.506 61.568C124.506 63.92 125.082 65.792 126.234 67.184C127.386 68.552 128.922 69.236 130.842 69.236ZM147.393 71L142.317 52.496H144.873L148.941 68.768H149.481L153.729 52.496H157.149L161.397 68.768H161.865L165.969 52.496H168.489L163.413 71H159.885L155.601 54.728H155.277L150.993 71H147.393ZM187.312 71.324C185.752 71.324 184.588 70.904 183.82 70.064C183.052 69.2 182.668 67.916 182.668 66.212V54.656H179.824L179.86 52.496H181.516C182.068 52.496 182.452 52.4 182.668 52.208C182.908 51.992 183.064 51.644 183.136 51.164L183.424 48.32H185.044V52.496H190.624V54.692H185.044V66.212C185.044 67.196 185.272 67.916 185.728 68.372C186.208 68.804 186.868 69.02 187.708 69.02C188.164 69.02 188.644 68.96 189.148 68.84C189.652 68.696 190.18 68.42 190.732 68.012V70.604C190.084 70.868 189.472 71.048 188.896 71.144C188.32 71.264 187.792 71.324 187.312 71.324ZM202.417 71.432C200.689 71.432 199.165 71.048 197.845 70.28C196.525 69.488 195.493 68.372 194.749 66.932C194.029 65.468 193.669 63.704 193.669 61.64C193.669 59.504 194.065 57.728 194.857 56.312C195.649 54.896 196.693 53.84 197.989 53.144C199.309 52.424 200.761 52.064 202.345 52.064C203.977 52.064 205.453 52.448 206.773 53.216C208.093 53.96 209.137 55.064 209.905 56.528C210.697 57.968 211.093 59.744 211.093 61.856C211.093 63.944 210.709 65.708 209.941 67.148C209.197 68.564 208.165 69.632 206.845 70.352C205.549 71.072 204.073 71.432 202.417 71.432ZM202.525 69.236C203.773 69.236 204.853 68.936 205.765 68.336C206.677 67.712 207.373 66.848 207.853 65.744C208.357 64.64 208.609 63.344 208.609 61.856C208.609 60.32 208.345 58.988 207.817 57.86C207.313 56.732 206.581 55.856 205.621 55.232C204.685 54.608 203.569 54.296 202.273 54.296C201.049 54.296 199.981 54.584 199.069 55.16C198.157 55.736 197.449 56.564 196.945 57.644C196.441 58.724 196.189 60.032 196.189 61.568C196.189 63.92 196.765 65.792 197.917 67.184C199.069 68.552 200.605 69.236 202.525 69.236ZM228.835 71.504C226.987 71.504 225.607 70.844 224.695 69.524C223.807 68.18 223.363 66.104 223.363 63.296V51.992H229.051V62.252C229.051 63.764 229.219 64.868 229.555 65.564C229.891 66.26 230.419 66.608 231.139 66.608C231.571 66.608 231.943 66.488 232.255 66.248C232.567 65.984 232.831 65.612 233.047 65.132C233.263 64.652 233.419 64.052 233.515 63.332C233.611 62.612 233.659 61.796 233.659 60.884V51.992H239.311V62.9V71H234.847L234.775 64.844H234.091C233.899 66.452 233.587 67.748 233.155 68.732C232.723 69.692 232.147 70.4 231.427 70.856C230.731 71.288 229.867 71.504 228.835 71.504ZM249.652 71.504C248.26 71.504 247.06 71.336 246.052 71C245.068 70.688 244.264 70.244 243.64 69.668C243.016 69.092 242.56 68.42 242.272 67.652C241.984 66.884 241.876 66.08 241.948 65.24L246.7 64.34C246.724 64.844 246.844 65.348 247.06 65.852C247.276 66.332 247.612 66.728 248.068 67.04C248.524 67.328 249.112 67.472 249.832 67.472C250.528 67.472 251.068 67.34 251.452 67.076C251.836 66.788 252.028 66.392 252.028 65.888C252.028 65.432 251.884 65.048 251.596 64.736C251.308 64.424 250.888 64.16 250.336 63.944C249.808 63.704 249.172 63.464 248.428 63.224C247.66 62.984 246.892 62.708 246.124 62.396C245.38 62.084 244.684 61.7 244.036 61.244C243.412 60.788 242.908 60.224 242.524 59.552C242.164 58.88 241.984 58.064 241.984 57.104C241.984 55.976 242.26 55.004 242.812 54.188C243.364 53.348 244.18 52.688 245.26 52.208C246.364 51.728 247.708 51.488 249.292 51.488C250.852 51.488 252.184 51.728 253.288 52.208C254.416 52.688 255.28 53.36 255.88 54.224C256.48 55.088 256.792 56.12 256.816 57.32L252.1 58.256C252.1 57.776 251.992 57.332 251.776 56.924C251.56 56.516 251.248 56.192 250.84 55.952C250.456 55.688 249.952 55.556 249.328 55.556C248.632 55.556 248.116 55.7 247.78 55.988C247.444 56.252 247.276 56.588 247.276 56.996C247.276 57.356 247.408 57.668 247.672 57.932C247.936 58.196 248.332 58.436 248.86 58.652C249.388 58.868 250.036 59.108 250.804 59.372C251.62 59.636 252.424 59.936 253.216 60.272C254.008 60.584 254.716 60.968 255.34 61.424C255.964 61.88 256.456 62.444 256.816 63.116C257.2 63.788 257.392 64.616 257.392 65.6C257.392 66.704 257.116 67.712 256.564 68.624C256.012 69.512 255.16 70.22 254.008 70.748C252.88 71.252 251.428 71.504 249.652 71.504ZM267.674 71.504C266.138 71.504 264.818 71.264 263.714 70.784C262.634 70.304 261.746 69.632 261.05 68.768C260.354 67.904 259.838 66.884 259.502 65.708C259.19 64.508 259.034 63.2 259.034 61.784C259.034 60.44 259.19 59.156 259.502 57.932C259.814 56.684 260.294 55.58 260.942 54.62C261.59 53.66 262.442 52.904 263.498 52.352C264.554 51.776 265.826 51.488 267.314 51.488C268.778 51.488 270.014 51.752 271.022 52.28C272.054 52.808 272.87 53.564 273.47 54.548C274.094 55.508 274.514 56.66 274.73 58.004C274.97 59.324 275.006 60.776 274.838 62.36L263.03 62.612V59.804L270.77 59.66L269.69 61.028C269.834 59.756 269.81 58.748 269.618 58.004C269.426 57.236 269.126 56.684 268.718 56.348C268.334 56.012 267.878 55.844 267.35 55.844C266.726 55.844 266.198 56.06 265.766 56.492C265.358 56.9 265.058 57.524 264.866 58.364C264.674 59.18 264.578 60.212 264.578 61.46C264.578 63.476 264.83 64.964 265.334 65.924C265.862 66.884 266.618 67.364 267.602 67.364C268.034 67.364 268.394 67.292 268.682 67.148C268.994 66.98 269.246 66.764 269.438 66.5C269.63 66.212 269.774 65.876 269.87 65.492C269.966 65.108 270.014 64.7 270.014 64.268L275.054 64.88C275.054 65.648 274.934 66.428 274.694 67.22C274.478 67.988 274.082 68.696 273.506 69.344C272.954 69.992 272.198 70.52 271.238 70.928C270.302 71.312 269.114 71.504 267.674 71.504Z" fill="white"/>
<path d="M316.851 64.3154C316.754 63.2737 316.814 62.4259 317.031 61.7718C317.271 61.0935 317.596 60.5363 318.005 60.1003C318.414 59.64 318.859 59.2524 319.34 58.9375C319.845 58.5984 320.326 58.2713 320.784 57.9564C321.241 57.6415 321.613 57.2781 321.902 56.8663C322.191 56.4302 322.335 55.8973 322.335 55.2674C322.335 54.4196 322.082 53.814 321.577 53.4506C321.096 53.063 320.435 52.8692 319.593 52.8692C319.064 52.8692 318.486 52.9419 317.861 53.0872C317.259 53.2083 316.646 53.39 316.021 53.6323C315.419 53.8503 314.83 54.1047 314.253 54.3953L314 49.4535C314.698 49.1143 315.395 48.8479 316.093 48.6541C316.814 48.436 317.536 48.2786 318.258 48.1817C318.979 48.0606 319.665 48 320.314 48C321.373 48 322.359 48.1332 323.273 48.3997C324.187 48.6662 324.993 49.078 325.691 49.6352C326.412 50.1681 326.978 50.8464 327.387 51.6701C327.796 52.4695 328 53.4264 328 54.5407C328 55.5581 327.832 56.406 327.495 57.0843C327.182 57.7626 326.773 58.344 326.268 58.8285C325.763 59.313 325.234 59.749 324.68 60.1366C324.127 60.5 323.598 60.8755 323.093 61.2631C322.588 61.6265 322.179 62.0504 321.866 62.5349C321.577 63.0194 321.445 63.6129 321.469 64.3154H316.851ZM319.412 73C318.162 73 317.223 72.7335 316.598 72.2006C315.997 71.6676 315.696 70.844 315.696 69.7297C315.696 68.5911 315.997 67.7553 316.598 67.2224C317.223 66.6894 318.162 66.423 319.412 66.423C320.687 66.423 321.637 66.6894 322.263 67.2224C322.888 67.7553 323.201 68.5911 323.201 69.7297C323.201 71.9099 321.938 73 319.412 73Z" fill="white"/>
<circle cx="321" cy="60" r="19" stroke="white" stroke-width="2"/>
<defs>
<filter id="filter0_d_34_508" x="0" y="0" width="414" height="141" filterUnits="userSpaceOnUse" color-interpolation-filters="sRGB">
<feFlood flood-opacity="0" result="BackgroundImageFix"/>
<feColorMatrix in="SourceAlpha" type="matrix" values="0 0 0 0 0 0 0 0 0 0 0 0 0 0 0 0 0 0 127 0" result="hardAlpha"/>
<feOffset dy="10"/>
<feGaussianBlur stdDeviation="10"/>
<feComposite in2="hardAlpha" operator="out"/>
<feColorMatrix type="matrix" values="0 0 0 0 0 0 0 0 0 0 0 0 0 0 0 0 0 0 0.75 0"/>
<feBlend mode="normal" in2="BackgroundImageFix" result="effect1_dropShadow_34_508"/>
<feBlend mode="normal" in="SourceGraphic" in2="effect1_dropShadow_34_508" result="shape"/>
</filter>
<filter id="filter1_d_34_508" x="29.623" y="17" width="354.289" height="89.0161" filterUnits="userSpaceOnUse" color-interpolation-filters="sRGB">
<feFlood flood-opacity="0" result="BackgroundImageFix"/>
<feColorMatrix in="SourceAlpha" type="matrix" values="0 0 0 0 0 0 0 0 0 0 0 0 0 0 0 0 0 0 127 0" result="hardAlpha"/>
<feOffset dy="1"/>
<feGaussianBlur stdDeviation="1.5"/>
<feColorMatrix type="matrix" values="0 0 0 0 0 0 0 0 0 0 0 0 0 0 0 0 0 0 0.25 0"/>
<feBlend mode="normal" in2="BackgroundImageFix" result="effect1_dropShadow_34_508"/>
<feBlend mode="normal" in="SourceGraphic" in2="effect1_dropShadow_34_508" result="shape"/>
</filter>
</defs>
</svg>
