<svg width="160" height="74" viewBox="0 0 160 74" fill="none" xmlns="http://www.w3.org/2000/svg">
<path d="M128.185 62.8519L134.857 15.2805H145.785L143.271 32.4831C143.722 30.9454 144.334 29.1835 145.108 27.1974C145.881 25.2112 146.881 23.2892 148.106 21.4312C149.331 19.5091 150.781 17.9394 152.457 16.7221C154.133 15.4407 156.035 14.8 158.163 14.8C158.421 14.8 158.743 14.8 159.13 14.8C159.516 14.8 159.807 14.832 160 14.8961L158.646 24.987C158.517 24.9229 158.292 24.8909 157.969 24.8909C157.711 24.8268 157.421 24.8268 157.099 24.8909C155.487 24.955 153.94 25.5636 152.457 26.7169C151.039 27.8701 149.685 29.3757 148.396 31.2337C147.106 33.0918 145.946 35.174 144.914 37.4805C143.883 39.787 143.013 42.1576 142.304 44.5922C141.594 47.0268 141.079 49.3654 140.756 51.6078L139.112 62.8519H128.185Z" fill="white"/>
<path d="M108.093 63.813C105.127 63.813 102.742 63.4286 100.937 62.6597C99.1963 61.8909 98.0358 60.5775 97.4556 58.7195C96.8754 56.7974 96.8432 54.0424 97.3589 50.4545L100.84 26.0442C101.485 21.5593 102.968 18.548 105.288 17.0104C107.674 15.4087 110.929 14.6078 115.055 14.6078C120.019 14.6078 123.372 15.6009 125.112 17.587C126.853 19.5091 127.24 22.8087 126.273 27.4857C125.628 30.3048 124.371 32.5792 122.501 34.3091C120.632 36.039 118.472 37.3844 116.022 38.3454C113.573 39.3065 111.187 40.0113 108.866 40.4597C106.546 40.8442 104.676 41.1004 103.258 41.2286L101.807 51.4156C101.291 54.8753 101.453 57.31 102.291 58.7195C103.193 60.0649 105.224 60.7377 108.383 60.7377C111.606 60.7377 113.83 60.0649 115.055 58.7195C116.345 57.374 117.215 54.9394 117.666 51.4156L118.44 45.9377H122.985L122.308 50.9351C121.857 54.3307 121.115 56.9576 120.084 58.8156C119.052 60.6736 117.57 61.987 115.636 62.7558C113.766 63.4606 111.252 63.813 108.093 63.813ZM103.741 38.1532C105.16 38.0251 106.771 37.8009 108.576 37.4805C110.446 37.0961 112.283 36.5195 114.088 35.7506C115.893 34.9177 117.441 33.8286 118.73 32.4831C120.084 31.1377 120.986 29.4398 121.438 27.3896C122.211 24.2502 122.211 21.8156 121.438 20.0857C120.664 18.2918 118.601 17.3948 115.249 17.3948C112.09 17.3948 109.769 18.0675 108.286 19.413C106.803 20.7584 105.804 23.129 105.288 26.5247L103.741 38.1532Z" fill="white"/>
<path d="M61.5908 74V15.2805H72.5181V19.0286C73.1628 17.9394 74.0654 16.9143 75.2258 15.9532C76.3862 14.9922 78.288 14.5117 80.9312 14.5117C83.1876 14.5117 85.1216 14.8961 86.7333 15.6649C88.345 16.3697 89.6021 17.555 90.5047 19.2208C91.4072 20.8225 91.8585 23.0329 91.8585 25.8519V48.9169C91.8585 52.4407 91.4717 55.2918 90.6981 57.4701C89.9245 59.5844 88.7318 61.1221 87.1201 62.0831C85.5084 62.9801 83.4454 63.4286 80.9312 63.4286C78.6748 63.4286 76.8697 63.0442 75.5159 62.2753C74.2265 61.4424 73.2595 60.5134 72.6148 59.4883V74H61.5908ZM76.773 57.2779C77.74 57.2779 78.4814 57.1498 78.9972 56.8935C79.5129 56.5732 79.8997 56.1567 80.1576 55.6442C80.4799 55.1316 80.6733 54.555 80.7378 53.9143C80.8023 53.2095 80.8345 52.4407 80.8345 51.6078V27.0052C80.8345 26.1723 80.8023 25.4035 80.7378 24.6987C80.6733 23.9939 80.4799 23.3853 80.1576 22.8727C79.8997 22.3602 79.5129 21.9758 78.9972 21.7195C78.4814 21.4632 77.74 21.3351 76.773 21.3351C75.8705 21.3351 75.1291 21.4952 74.5489 21.8156C74.0331 22.0719 73.6141 22.4563 73.2917 22.9688C73.0339 23.4173 72.8405 23.9299 72.7115 24.5065C72.6471 25.0831 72.6148 25.5957 72.6148 26.0442V51.8961C72.6148 52.9853 72.7115 53.9463 72.9049 54.7792C73.1628 55.6121 73.5818 56.2528 74.1621 56.7013C74.7423 57.0857 75.6126 57.2779 76.773 57.2779Z" fill="white"/>
<path d="M37.1201 62.8519L43.8892 15.2805H58.9747L52.2056 62.8519H37.1201ZM52.2056 10.8597C50.5939 10.8597 49.2401 10.3472 48.1441 9.32208C47.0482 8.2329 46.5002 6.91948 46.5002 5.38182C46.5002 3.84416 47.0482 2.56277 48.1441 1.53767C49.2401 0.512555 50.5939 0 52.2056 0C53.8818 0 55.2356 0.512555 56.2671 1.53767C57.363 2.56277 57.911 3.84416 57.911 5.38182C57.911 6.91948 57.363 8.2329 56.2671 9.32208C55.2356 10.3472 53.8818 10.8597 52.2056 10.8597Z" fill="white"/>
<path d="M0 74L8.21966 15.2805H19.147L18.6635 19.0286C19.4371 17.9394 20.4686 16.9143 21.7579 15.9532C23.0473 14.9922 25.0135 14.5117 27.6567 14.5117C29.9131 14.5117 31.7827 14.8961 33.2654 15.6649C34.8127 16.3697 35.9409 17.555 36.65 19.2208C37.3591 20.8225 37.4881 23.0329 37.0368 25.8519L33.7489 48.9169C33.2977 52.4407 32.5241 55.2918 31.4281 57.4701C30.3321 59.5844 28.9139 61.1221 27.1732 62.0831C25.4326 62.9801 23.3051 63.4286 20.7909 63.4286C18.5345 63.4286 16.7939 63.0442 15.569 62.2753C14.4086 61.4424 13.5705 60.5134 13.0547 59.4883L11.024 74H0ZM17.503 57.1818C18.7279 57.1818 19.6627 56.9576 20.3074 56.5091C20.9521 55.9965 21.4356 55.3238 21.7579 54.4909C22.0803 53.5939 22.3059 52.6329 22.4348 51.6078L25.9161 27.0052C25.9806 26.1723 26.0128 25.4355 26.0128 24.7948C26.0773 24.09 26.0128 23.4814 25.8194 22.9688C25.626 22.4563 25.2714 22.0719 24.7557 21.8156C24.2399 21.4952 23.4985 21.3351 22.5315 21.3351C21.629 21.3351 20.8876 21.4952 20.3074 21.8156C19.7272 22.1359 19.2437 22.5203 18.8569 22.9688C18.5345 23.4173 18.2766 23.9299 18.0832 24.5065C17.9543 25.0831 17.8576 25.5957 17.7931 26.0442L14.1185 51.8961C13.9895 52.9853 13.9573 53.9463 14.0218 54.7792C14.0862 55.548 14.3763 56.1567 14.8921 56.6052C15.4723 56.9896 16.3426 57.1818 17.503 57.1818Z" fill="white"/>
</svg>
